<?xml version="1.0" encoding="utf-8"?>
<!-- Generator: Adobe Illustrator 15.0.0, SVG Export Plug-In . SVG Version: 6.00 Build 0)  -->
<!DOCTYPE svg PUBLIC "-//W3C//DTD SVG 1.1//EN" "http://www.w3.org/Graphics/SVG/1.1/DTD/svg11.dtd">
<svg version="1.1" id="Layer_1" xmlns="http://www.w3.org/2000/svg" xmlns:xlink="http://www.w3.org/1999/xlink" x="0px" y="0px"
	 width="100px" height="100px" viewBox="0 0 100 100" enable-background="new 0 0 100 100" xml:space="preserve">
<g>
	<path fill="#F3F3E0" d="M50,4.566c-25.052,0-45.434,20.381-45.434,45.433c0,25.053,20.381,45.435,45.434,45.435
		c25.052,0,45.434-20.382,45.434-45.435C95.434,24.947,75.052,4.566,50,4.566z M50,90.434c-22.295,0-40.434-18.139-40.434-40.435
		C9.566,27.705,27.705,9.566,50,9.566c22.295,0,40.434,18.138,40.434,40.433C90.434,72.295,72.295,90.434,50,90.434z"/>
	<path fill="#F3F3E0" d="M74.5,25H68v-1c0-1.381-1.119-2.5-2.5-2.5S63,22.619,63,24v1H37v-1c0-1.381-1.119-2.5-2.5-2.5
		S32,22.619,32,24v1h-6.5c-1.381,0-2.5,1.119-2.5,2.5v46c0,1.381,1.119,2.5,2.5,2.5h49c1.381,0,2.5-1.119,2.5-2.5v-46
		C77,26.119,75.881,25,74.5,25z M32,30v1c0,1.381,1.119,2.5,2.5,2.5S37,32.381,37,31v-1h26v1c0,1.381,1.119,2.5,2.5,2.5
		S68,32.381,68,31v-1h4v7H28v-7H32z M28,71V42h44v29H28z"/>
	<path fill="#F3F3E0" d="M38,46h-4c-1.381,0-2.5,1.119-2.5,2.5S32.619,51,34,51h4c1.381,0,2.5-1.119,2.5-2.5S39.381,46,38,46z"/>
	<path fill="#F3F3E0" d="M52,46h-4c-1.381,0-2.5,1.119-2.5,2.5S46.619,51,48,51h4c1.381,0,2.5-1.119,2.5-2.5S53.381,46,52,46z"/>
	<path fill="#F3F3E0" d="M66,46h-4c-1.381,0-2.5,1.119-2.5,2.5S60.619,51,62,51h4c1.381,0,2.5-1.119,2.5-2.5S67.381,46,66,46z"/>
	<path fill="#F3F3E0" d="M38,54h-4c-1.381,0-2.5,1.119-2.5,2.5S32.619,59,34,59h4c1.381,0,2.5-1.119,2.5-2.5S39.381,54,38,54z"/>
	<path fill="#F3F3E0" d="M52,54h-4c-1.381,0-2.5,1.119-2.5,2.5S46.619,59,48,59h4c1.381,0,2.5-1.119,2.5-2.5S53.381,54,52,54z"/>
	<path fill="#F3F3E0" d="M38,62h-4c-1.381,0-2.5,1.119-2.5,2.5S32.619,67,34,67h4c1.381,0,2.5-1.119,2.5-2.5S39.381,62,38,62z"/>
	<path fill="#F3F3E0" d="M52,62h-4c-1.381,0-2.5,1.119-2.5,2.5S46.619,67,48,67h4c1.381,0,2.5-1.119,2.5-2.5S53.381,62,52,62z"/>
	<path fill="#F3F3E0" d="M66,54h-4c-1.381,0-2.5,1.119-2.5,2.5S60.619,59,62,59h4c1.381,0,2.5-1.119,2.5-2.5S67.381,54,66,54z"/>
</g>
</svg>
