<?xml version="1.0" encoding="utf-8"?>
<!-- Generator: Adobe Illustrator 15.0.0, SVG Export Plug-In . SVG Version: 6.00 Build 0)  -->
<!DOCTYPE svg PUBLIC "-//W3C//DTD SVG 1.1//EN" "http://www.w3.org/Graphics/SVG/1.1/DTD/svg11.dtd">
<svg version="1.1" id="Layer_1" xmlns="http://www.w3.org/2000/svg" xmlns:xlink="http://www.w3.org/1999/xlink" x="0px" y="0px"
	 width="100px" height="100px" viewBox="0 0 100 100" enable-background="new 0 0 100 100" xml:space="preserve">
<g>
	<path fill="#F3F3E0" d="M50,4.566c-25.052,0-45.434,20.381-45.434,45.433c0,25.053,20.381,45.435,45.434,45.435
		s45.434-20.382,45.434-45.435C95.436,24.947,75.053,4.566,50,4.566z M50,90.434c-22.295,0-40.434-18.139-40.434-40.435
		C9.566,27.705,27.705,9.566,50,9.566s40.434,18.138,40.434,40.433C90.436,72.295,72.296,90.434,50,90.434z"/>
	<path fill="#F3F3E0" d="M67.041,43h-26.5V30.217c0-5.423,3.575-9.357,8.5-9.357s8.5,3.936,8.5,9.357V37c0,1.381,1.119,2.5,2.5,2.5
		s2.5-1.119,2.5-2.5v-6.783c0-8.186-5.805-14.357-13.5-14.357s-13.5,6.172-13.5,14.357V43h-3.5c-1.381,0-2.5,1.119-2.5,2.5v32
		c0,1.381,1.119,2.5,2.5,2.5h35c1.381,0,2.5-1.119,2.5-2.5v-32C69.541,44.119,68.422,43,67.041,43z M64.541,75h-30V48h30V75z"/>
</g>
</svg>
