<?xml version="1.0" encoding="utf-8"?>
<!-- Generator: Adobe Illustrator 15.0.0, SVG Export Plug-In . SVG Version: 6.00 Build 0)  -->
<!DOCTYPE svg PUBLIC "-//W3C//DTD SVG 1.1//EN" "http://www.w3.org/Graphics/SVG/1.1/DTD/svg11.dtd">
<svg version="1.1" id="Layer_1" xmlns="http://www.w3.org/2000/svg" xmlns:xlink="http://www.w3.org/1999/xlink" x="0px" y="0px"
	 width="100px" height="100px" viewBox="0 0 100 100" enable-background="new 0 0 100 100" xml:space="preserve">
<g>
	<path fill="#F3F3E0" d="M50,4.566c-25.052,0-45.434,20.381-45.434,45.433c0,25.053,20.381,45.435,45.434,45.435
		c25.052,0,45.434-20.382,45.434-45.435C95.434,24.947,75.052,4.566,50,4.566z M50,90.434c-22.295,0-40.434-18.139-40.434-40.435
		C9.566,27.705,27.705,9.566,50,9.566c22.295,0,40.434,18.138,40.434,40.433C90.434,72.295,72.295,90.434,50,90.434z"/>
	<path fill="#F3F3E0" d="M76,36H24c-1.381,0-2.5,1.119-2.5,2.5S22.619,41,24,41h52c1.381,0,2.5-1.119,2.5-2.5S77.381,36,76,36z"/>
	<path fill="#F3F3E0" d="M76,48H24c-1.381,0-2.5,1.119-2.5,2.5S22.619,53,24,53h52c1.381,0,2.5-1.119,2.5-2.5S77.381,48,76,48z"/>
	<path fill="#F3F3E0" d="M76,60H24c-1.381,0-2.5,1.119-2.5,2.5S22.619,65,24,65h52c1.381,0,2.5-1.119,2.5-2.5S77.381,60,76,60z"/>
</g>
</svg>
