<?xml version="1.0" encoding="utf-8"?>
<!-- Generator: Adobe Illustrator 15.0.0, SVG Export Plug-In . SVG Version: 6.00 Build 0)  -->
<!DOCTYPE svg PUBLIC "-//W3C//DTD SVG 1.1//EN" "http://www.w3.org/Graphics/SVG/1.1/DTD/svg11.dtd">
<svg version="1.1" id="Layer_1" xmlns="http://www.w3.org/2000/svg" xmlns:xlink="http://www.w3.org/1999/xlink" x="0px" y="0px"
	 width="100px" height="100px" viewBox="0 0 100 100" enable-background="new 0 0 100 100" xml:space="preserve">
<g>
	<path fill="#F3F3E0" d="M50,4.566c-25.052,0-45.434,20.381-45.434,45.433c0,25.053,20.381,45.435,45.434,45.435
		c25.052,0,45.434-20.382,45.434-45.435C95.434,24.947,75.052,4.566,50,4.566z M50,9.566c22.295,0,40.434,18.138,40.434,40.433
		c0,7.269-1.938,14.089-5.309,19.989c-10.576-7.417-22.779-11.326-35.449-11.326c-12.468,0-24.515,3.802-34.984,11.008
		c-3.259-5.827-5.125-12.533-5.125-19.671C9.566,27.705,27.705,9.566,50,9.566z M50,90.434c-13.368,0-25.236-6.525-32.602-16.554
		c9.662-6.687,20.78-10.218,32.277-10.218c11.687,0,22.949,3.632,32.712,10.518C75.008,84.04,63.236,90.434,50,90.434z"/>
	<path fill="#F3F3E0" d="M50,55.935c10.848,0,19.673-8.825,19.673-19.673c0-10.848-8.825-19.674-19.673-19.674
		c-10.848,0-19.674,8.826-19.674,19.674C30.326,47.109,39.152,55.935,50,55.935z M50,21.588c8.091,0,14.673,6.583,14.673,14.674
		c0,8.091-6.582,14.673-14.673,14.673c-8.091,0-14.674-6.582-14.674-14.673C35.326,28.17,41.909,21.588,50,21.588z"/>
</g>
</svg>
