<?xml version="1.0" encoding="utf-8"?>
<!-- Generator: Adobe Illustrator 15.0.0, SVG Export Plug-In . SVG Version: 6.00 Build 0)  -->
<!DOCTYPE svg PUBLIC "-//W3C//DTD SVG 1.1//EN" "http://www.w3.org/Graphics/SVG/1.1/DTD/svg11.dtd">
<svg version="1.1" id="Layer_1" xmlns="http://www.w3.org/2000/svg" xmlns:xlink="http://www.w3.org/1999/xlink" x="0px" y="0px"
	 width="100px" height="100px" viewBox="0 0 100 100" enable-background="new 0 0 100 100" xml:space="preserve">
<path fill="#F3F3E0" d="M83.609,40l-5.373-6.346l-3.055-8.149l5.184-9.109L63.428,6.813l-5.323,9.401l-7.972,1.356l-8.205-1.389
	L36.6,6.903l-16.885,9.696L25,25.804l-2.97,7.851L16.657,40H6v20h10.657l5.374,6.371l3.054,8.161L19.9,83.646l16.938,9.589
	l5.324-9.4l7.971-1.356l8.204,1.392l5.328,9.278l16.885-9.696l-5.284-9.206l2.971-7.875L83.609,60H94V40H83.609z M50.133,66.252
	c-8.96,0-16.225-7.266-16.225-16.227S41.172,33.8,50.133,33.8c8.961,0,16.226,7.264,16.226,16.225S59.094,66.252,50.133,66.252z"/>
</svg>
